<svg viewBox="0 0 48 48" xmlns="http://www.w3.org/2000/svg" id="dsmIcon"><g id="Icon/48/EmptyHub" stroke-width="1" fill-rule="evenodd"><path d="M27 37c0 1.659-1.342 3-3 3s-3-1.341-3-3 1.342-3 3-3 3 1.349 3 3" id="Path" stroke="#7C7C7C"/><path d="M33.1 44H14.9c-2.15 0-3.9-1.717-3.9-3.75V7.75C11 5.716 12.75 4 14.9 4h18.2C35.249 4 37 5.716 37 7.75v32.5c0 2.033-1.751 3.75-3.9 3.75z" id="Path" stroke="#7C7C7C"/><path d="M33.398 9.049c0 .83-.667 1.5-1.49 1.5-.824 0-1.49-.67-1.49-1.5 0-.829.666-1.5 1.49-1.5.823 0 1.49.674 1.49 1.5" id="Path" fill="#7C7C7C" fill-rule="nonzero"/></g></svg>