<svg viewBox="0 0 39 39" xmlns="http://www.w3.org/2000/svg" id="dsmIcon"><path fill-rule="evenodd" clip-rule="evenodd" d="M16.421 6.158h6.158V0h-6.158v6.158zM16.421 22.579h6.158v-6.158h-6.158v6.158zM16.421 39h6.158v-6.158h-6.158V39zM8.21 6.158h6.158V0H8.21v6.158zM8.21 22.579h6.158v-6.158H8.21v6.158zM8.21 30.79h6.158v-6.158H8.21v6.157zM8.21 39h6.158v-6.158H8.21V39zM24.632 6.158h6.157V0h-6.157v6.158zM24.632 14.368h6.157V8.21h-6.157v6.158zM24.632 22.579h6.157v-6.158h-6.157v6.158zM24.632 39h6.157v-6.158h-6.157V39z"/></svg>