<svg viewBox="0 0 39 39" xmlns="http://www.w3.org/2000/svg" id="dsmIcon"><path fill-rule="evenodd" clip-rule="evenodd" d="M8.21 14.368h6.158V8.21H8.21v6.158zM0 14.368h6.158V8.21H0v6.158zM8.21 6.158h6.158V0H8.21v6.158zM8.21 22.579h6.158v-6.158H8.21v6.158zM8.21 30.79h6.158v-6.158H8.21v6.157zM8.21 39h6.158v-6.158H8.21V39zM24.632 14.368h6.157V8.21h-6.157v6.158zM32.842 6.158H39V0h-6.158v6.158zM32.842 14.368H39V8.21h-6.158v6.158zM32.842 22.579H39v-6.158h-6.158v6.158zM32.842 30.79H39v-6.158h-6.158v6.157zM32.842 39H39v-6.158h-6.158V39z"/></svg>