<svg viewBox="0 0 39 39" xmlns="http://www.w3.org/2000/svg" id="dsmIcon"><path fill-rule="evenodd" clip-rule="evenodd" d="M16.421 6.158h6.158V0h-6.158v6.158zM16.421 22.579h6.158v-6.158h-6.158v6.158zM16.421 39h6.158v-6.158h-6.158V39zM0 6.158h6.158V0H0v6.158zM0 14.368h6.158V8.21H0v6.158zM0 22.579h6.158v-6.158H0v6.158zM0 30.79h6.158v-6.158H0v6.157zM0 39h6.158v-6.158H0V39zM24.632 6.158h6.157V0h-6.157v6.158zM24.632 22.579h6.157v-6.158h-6.157v6.158zM24.632 39h6.157v-6.158h-6.157V39zM32.842 6.158H39V0h-6.158v6.158zM32.842 14.368H39V8.21h-6.158v6.158zM32.842 22.579H39v-6.158h-6.158v6.158zM32.842 30.79H39v-6.158h-6.158v6.157zM32.842 39H39v-6.158h-6.158V39z"/></svg>