<?xml version="1.0" encoding="UTF-8" standalone="no"?>
<svg
   xmlns:dc="http://purl.org/dc/elements/1.1/"
   xmlns:cc="http://creativecommons.org/ns#"
   xmlns:rdf="http://www.w3.org/1999/02/22-rdf-syntax-ns#"
   xmlns:svg="http://www.w3.org/2000/svg"
   xmlns="http://www.w3.org/2000/svg"
   xmlns:sodipodi="http://sodipodi.sourceforge.net/DTD/sodipodi-0.dtd"
   xmlns:inkscape="http://www.inkscape.org/namespaces/inkscape"
   version="1.0"
   x="0px"
   y="0px"
   viewBox="0 0 100 100"
   enable-background="new 0 0 100 100"
   xml:space="preserve"
   id="svg16"
   sodipodi:docname="noun_1203668_cc.svg"
   width="100"
   height="100"
   inkscape:version="0.92.3 (2405546, 2018-03-11)"><metadata
     id="metadata22"><rdf:RDF><cc:Work
         rdf:about=""><dc:format>image/svg+xml</dc:format><dc:type
           rdf:resource="http://purl.org/dc/dcmitype/StillImage" /><dc:title></dc:title></cc:Work></rdf:RDF></metadata><defs
     id="defs20" /><sodipodi:namedview
     pagecolor="#ffffff"
     bordercolor="#666666"
     borderopacity="1"
     objecttolerance="10"
     gridtolerance="10"
     guidetolerance="10"
     inkscape:pageopacity="0"
     inkscape:pageshadow="2"
     inkscape:window-width="1920"
     inkscape:window-height="1017"
     id="namedview18"
     showgrid="false"
     inkscape:zoom="1.888"
     inkscape:cx="136.06992"
     inkscape:cy="62.5"
     inkscape:window-x="-8"
     inkscape:window-y="-8"
     inkscape:window-maximized="1"
     inkscape:current-layer="svg16" /><g
     id="g10"
     transform="translate(0,-1.1345215)"><path
       d="M 64.964355,49.007202 C 61.443359,47.5401 48.973022,45.192749 48.973022,41.378357 c 0,-3.814514 27.434693,-11.150025 27.434693,-11.150025 0,0 -24.500488,4.10785 -32.863037,6.895386 -8.362305,2.787537 -4.254395,7.922363 1.907348,10.709778 6.161744,2.787537 5.281494,4.547974 5.281494,4.547974 -1.026977,5.428283 -31.68933,11.590149 -46.066772,14.377624 l 21.419556,17.605164 c 5.574951,-1.760498 14.67102,-4.10791 35.797241,-13.497315 31.102295,-14.084045 6.601807,-20.24591 3.08081,-21.859741 z"
       id="path2"
       inkscape:connector-curvature="0" /><path
       d="m 12.882446,41.231567 v 14.230896 h 5.868408 V 41.671692 c 5.428101,-1.026917 9.68274,-5.721619 9.68274,-11.44336 0,-6.455139 -5.281494,-11.589965 -11.589966,-11.589965 -6.308472,0 -11.590088,5.281494 -11.590088,11.589965 -0.1468505,5.134888 3.0809327,9.389466 7.628906,11.003235 z"
       id="path4"
       inkscape:connector-curvature="0" /><path
       d="m 48.826416,25.973816 v 4.401306 h 1.760376 v -4.401306 c 1.760498,-0.440186 3.080933,-2.053955 3.080933,-3.961182 0,-2.200622 -1.760498,-4.107849 -4.107911,-4.107849 -2.200561,0 -4.10791,1.760437 -4.10791,4.107849 0.293457,1.907227 1.613892,3.520996 3.374512,3.961182 z"
       id="path6"
       inkscape:connector-curvature="0" /><path
       d="m 87.26416,25.386963 c -4.401245,0 -8.068969,3.667724 -8.068969,8.069031 0,3.814392 2.494018,6.895385 6.015136,7.775573 v 8.802613 h 4.107788 v -8.802613 c 3.521119,-0.880188 6.015137,-4.107849 6.015137,-7.775573 0,-4.401307 -3.520996,-8.069031 -8.069092,-8.069031 z"
       id="path8"
       inkscape:connector-curvature="0" /></g></svg>